<svg width="100" height="100" viewBox="0 0 100 100" fill="none" xmlns="http://www.w3.org/2000/svg">
  <mask id="mask0_2850_7523" style="mask-type:alpha" maskUnits="userSpaceOnUse" x="0" y="0" width="100" height="100">
    <path
      d="M50 100C77.6142 100 100 77.6142 100 50C100 22.3858 77.6142 0 50 0C22.3858 0 0 22.3858 0 50C0 77.6142 22.3858 100 50 100Z"
      fill="#C4C4C4" />
  </mask>
  <g mask="url(#mask0_2850_7523)">
    <path d="M25.9998 116L78.9998 139L126 40V-16L-18 -3.99994L-32 100L25.9998 116Z" fill="#FF4A4A" />
    <path
      d="M49.9997 94.8C74.7421 94.8 94.7997 74.7423 94.7997 50C94.7997 25.2576 74.7421 5.19995 49.9997 5.19995C25.2574 5.19995 5.19971 25.2576 5.19971 50C5.19971 74.7423 25.2574 94.8 49.9997 94.8Z"
      stroke="white" stroke-width="2.4" stroke-dasharray="2.4 2.4" />
    <path fill-rule="evenodd" clip-rule="evenodd"
      d="M35 65V36H46V33H34C32.8954 33 32 33.8954 32 35V66C32 67.1046 32.8954 68 34 68H65C66.1046 68 67 67.1046 67 66V54H64V65H35Z"
      fill="white" />
    <path
      d="M70.5 31.5C70.5 30.6716 69.8284 30 69 30H55.5C54.6716 30 54 30.6716 54 31.5C54 32.3284 54.6716 33 55.5 33L67.5 33L67.5 45C67.5 45.8284 68.1716 46.5 69 46.5C69.8284 46.5 70.5 45.8284 70.5 45V31.5ZM51.0607 51.5607L70.0607 32.5607L67.9393 30.4393L48.9393 49.4393L51.0607 51.5607Z"
      fill="white" />
  </g>
</svg>
