<svg width="100" height="100" viewBox="0 0 100 100" fill="none" xmlns="http://www.w3.org/2000/svg">
<g clip-path="url(#clip0)">
<path d="M50 100C77.6142 100 100 77.6142 100 50C100 22.3858 77.6142 0 50 0C22.3858 0 0 22.3858 0 50C0 77.6142 22.3858 100 50 100Z" fill="#FF4A4A"/>
<path d="M50 94.8C74.7424 94.8 94.8 74.7423 94.8 50C94.8 25.2576 74.7424 5.19995 50 5.19995C25.2577 5.19995 5.20001 25.2576 5.20001 50C5.20001 74.7423 25.2577 94.8 50 94.8Z" stroke="white" stroke-width="2.4" stroke-dasharray="2.4 2.4"/>
<path d="M0 49.5C2.77778 47.5 5.55556 47.5 8.33333 49.5C11.1111 51.5 13.8889 51.5 16.6667 49.5C19.4444 47.5 22.2222 47.5 25 49.5C27.7778 51.5 30.5556 51.5 33.3333 49.5C36.1111 47.5 38.8889 47.5 41.6667 49.5C44.4444 51.5 47.2222 51.5 50 49.5C52.7778 47.5 55.5556 47.5 58.3333 49.5C61.1111 51.5 63.8889 51.5 66.6667 49.5C69.4444 47.5 72.2222 47.5 75 49.5C77.7778 51.5 80.5556 51.5 83.3333 49.5C86.1111 47.5 88.8889 47.5 91.6667 49.5C94.4444 51.5 97.2222 51.5 100 49.5" stroke="url(#paint0_linear)" stroke-width="2.5"/>
</g>
<path fill-rule="evenodd" clip-rule="evenodd" d="M71.5518 51.0372L76.6541 51.8883L74.8762 58.793L74.8726 58.7924C73.4885 65.234 61.1429 68.5397 47.0314 66.1859C32.92 63.8321 22.3157 56.6983 23.0973 50.1562L23.0922 50.1553L23.6516 43.0474L28.7554 43.8987C33.9445 41.5195 42.1347 40.7558 51.0258 42.2389C59.917 43.7219 67.4159 47.1026 71.5518 51.0372Z" fill="url(#paint1_linear)"/>
<ellipse cx="50.2302" cy="46.997" rx="26.8674" ry="12.457" transform="rotate(9.46987 50.2302 46.997)" fill="white"/>
<ellipse cx="50.2701" cy="46.7584" rx="23.4455" ry="10.4376" transform="rotate(9.46987 50.2701 46.7584)" fill="#FF5E5E"/>
<defs>
<linearGradient id="paint0_linear" x1="-3.24074" y1="51" x2="98.6111" y2="51" gradientUnits="userSpaceOnUse">
<stop stop-color="white" stop-opacity="0"/>
<stop offset="0.239583" stop-color="white" stop-opacity="0.6"/>
<stop offset="0.5" stop-color="white"/>
<stop offset="0.78125" stop-color="white" stop-opacity="0.6"/>
<stop offset="1" stop-color="white" stop-opacity="0"/>
</linearGradient>
<linearGradient id="paint1_linear" x1="35" y1="50" x2="69.6889" y2="57.6696" gradientUnits="userSpaceOnUse">
<stop stop-color="white"/>
<stop offset="1" stop-color="#FDE7E7"/>
</linearGradient>
<clipPath id="clip0">
<rect width="100" height="100" fill="white"/>
</clipPath>
</defs>
</svg>
