<svg width="16" height="16" viewBox="0 0 16 16" fill="none" xmlns="http://www.w3.org/2000/svg">
<path fill-rule="evenodd" clip-rule="evenodd" d="M8 14.5C11.5899 14.5 14.5 11.5899 14.5 8C14.5 4.41015 11.5899 1.5 8 1.5C4.41015 1.5 1.5 4.41015 1.5 8C1.5 11.5899 4.41015 14.5 8 14.5ZM8 16C12.4183 16 16 12.4183 16 8C16 3.58172 12.4183 0 8 0C3.58172 0 0 3.58172 0 8C0 12.4183 3.58172 16 8 16Z" fill="#FF4A4A" fill-opacity="0.5"/>
<path d="M7 6.5H9V12.5H7V6.5Z" fill="#FF4A4A" fill-opacity="0.5"/>
<path d="M9 4.5C9 5.05228 8.55229 5.5 8 5.5C7.44772 5.5 7 5.05228 7 4.5C7 3.94772 7.44772 3.5 8 3.5C8.55229 3.5 9 3.94772 9 4.5Z" fill="#FF4A4A" fill-opacity="0.5"/>
</svg>
