<svg width="28" height="33" viewBox="0 0 28 33" fill="none" xmlns="http://www.w3.org/2000/svg">
<circle cx="13.6891" cy="18.9552" r="11.5836" fill="white"/>
<path d="M14.0074 32.837C16.5822 32.8397 19.1078 32.1312 21.3054 30.7895C23.5031 29.4479 25.2875 27.5252 26.4618 25.2338C27.636 22.9423 28.1545 20.371 27.9601 17.8035C27.7656 15.236 26.8658 12.7721 25.3598 10.6836L27.8822 8.1719L25.8686 6.15828L23.4778 8.54901C21.2239 6.47143 18.348 5.19477 15.2952 4.91666V2.84611H16.7752V0H10.9656V2.84611H12.4456V4.94512C8.88954 5.3398 5.6199 7.08204 3.30907 9.81356C0.99823 12.5451 -0.178133 16.0582 0.0218961 19.6305C0.221925 23.2027 1.78314 26.5626 4.38447 29.019C6.98581 31.4755 10.4295 32.8418 14.0074 32.837ZM14.0074 7.7023C16.212 7.7023 18.3671 8.35609 20.2002 9.581C22.0332 10.8059 23.4618 12.5469 24.3054 14.5838C25.1489 16.6207 25.3694 18.862 24.939 21.0242C24.5087 23.1864 23.4468 25.1725 21.8876 26.7311C20.3284 28.2898 18.3421 29.3511 16.1797 29.7807C14.0173 30.2104 11.7761 29.9892 9.73948 29.145C7.70286 28.3008 5.96232 26.8717 4.738 25.0382C3.51368 23.2048 2.86057 21.0495 2.86128 18.8448C2.86505 15.8902 4.04069 13.0577 6.13027 10.9688C8.21985 8.87986 11.0527 7.70512 14.0074 7.7023Z" fill="#FF4A4A"/>
<path fill-rule="evenodd" clip-rule="evenodd" d="M13.8711 19.2632H22.5745C22.593 19.0288 22.6024 18.7918 22.6024 18.5527C22.6024 13.6948 18.7081 9.74644 13.8711 9.65918V19.2632Z" fill="#FF4A4A"/>
</svg>
