<svg width="137" height="35" viewBox="0 0 137 35" fill="none" xmlns="http://www.w3.org/2000/svg">
<path fill-rule="evenodd" clip-rule="evenodd" d="M87.875 34.3156H82.0806C80.9921 34.3156 80.1099 33.4354 80.1099 32.351V17.0812L69.9386 23.4407C69.0853 23.9744 68.0001 23.9744 67.1468 23.4407L56.9755 17.0806V32.351C56.9755 33.4354 56.0927 34.3156 55.0049 34.3156H49.2104C48.1213 34.3156 47.2397 33.4354 47.2397 32.351V2.92019C47.2397 0.812803 49.6085 -0.432115 51.3519 0.759104L67.4293 11.7407C68.1 12.1998 68.9855 12.1998 69.6568 11.7407L85.7329 0.759104C87.4769 -0.43277 89.8457 0.812148 89.8457 2.91954V32.351C89.8457 33.4354 88.9635 34.3156 87.875 34.3156Z" fill="#FF4A4A"/>
<path fill-rule="evenodd" clip-rule="evenodd" d="M38.5112 34.0535L2.61501 34.0529C1.17087 34.0529 0 32.8848 0 31.4442V1.95654C0 0.875877 0.877988 0 1.96125 0H7.728C8.81061 0 9.68925 0.875877 9.68925 1.95654V24.3869L31.4369 24.3876V1.95654C31.4369 0.875877 32.3143 0 33.3982 0H39.1649C40.2476 0 41.1262 0.875877 41.1262 1.95654V31.4448C41.1262 32.8855 39.9553 34.0535 38.5112 34.0535Z" fill="#FF4A4A"/>
<path fill-rule="evenodd" clip-rule="evenodd" d="M98.4888 0L134.385 0.000652179C135.829 0.000652179 137 1.16871 137 2.60937V32.097C137 33.1777 136.121 34.0535 135.039 34.0535H129.272C128.189 34.0535 127.311 33.1777 127.311 32.097V10.971C127.311 10.251 126.725 9.6666 126.003 9.6666L106.871 9.66595C106.149 9.66595 105.563 10.2496 105.563 10.9703V32.097C105.563 33.1777 104.685 34.0535 103.602 34.0535H97.835C96.7518 34.0535 95.8738 33.1777 95.8738 32.097V2.60872C95.8738 1.16805 97.0446 0 98.4888 0Z" fill="#FF4A4A"/>
<path fill-rule="evenodd" clip-rule="evenodd" d="M111.591 17.9224V23.7276C111.591 24.8011 112.47 25.6711 113.554 25.6711H119.32C120.404 25.6711 121.283 24.8011 121.283 23.7276V17.9224C121.283 16.849 120.404 15.9789 119.32 15.9789H113.554C112.47 15.9789 111.591 16.849 111.591 17.9224Z" fill="#FF4A4A"/>
</svg>
