<?xml version="1.0" standalone="no"?>
<!DOCTYPE svg PUBLIC "-//W3C//DTD SVG 20010904//EN"
 "http://www.w3.org/TR/2001/REC-SVG-20010904/DTD/svg10.dtd">
<svg version="1.0" xmlns="http://www.w3.org/2000/svg"
 width="768.000000pt" height="768.000000pt" viewBox="0 0 768.000000 768.000000"
 preserveAspectRatio="xMidYMid meet">
<metadata>
Created by potrace 1.14, written by Peter Selinger 2001-2017
</metadata>
<g transform="translate(0.000000,768.000000) scale(0.100000,-0.100000)"
fill="#000000" stroke="none">
<path d="M345 7021 c-151 -43 -244 -133 -326 -316 -20 -43 -25 -5541 -6 -5595
14 -39 58 -115 84 -145 27 -30 97 -73 150 -92 43 -15 113 -17 623 -18 538 -1
579 0 635 18 69 21 94 36 148 86 58 54 110 175 108 251 -2 52 0 103 4 110 3 5
1 11 -4 15 -7 3 -7 15 -1 30 5 14 5 27 0 30 -5 3 -5 18 0 35 5 16 5 32 0 35
-5 3 -5 18 0 34 4 16 6 32 3 34 -7 8 -9 117 -1 117 4 0 3 13 -2 29 -4 16 -6
32 -3 35 8 7 7 105 -1 113 -3 3 -1 13 4 22 5 10 5 23 0 31 -4 7 -5 23 0 35 5
12 5 28 0 35 -5 7 -4 23 0 36 5 12 6 24 3 27 -8 9 -9 117 -1 117 4 0 3 13 -2
29 -4 16 -6 32 -3 35 8 7 7 95 0 102 -3 3 -2 17 3 30 5 13 6 26 0 29 -5 3 -5
18 0 35 5 16 5 32 0 35 -5 3 -5 18 0 34 4 16 6 32 3 34 -7 8 -9 117 -1 117 4
0 3 13 -2 29 -4 16 -6 32 -3 35 8 7 7 105 -1 113 -3 3 -1 13 4 22 5 10 5 23 0
31 -4 7 -5 23 0 35 5 12 5 28 0 35 -5 7 -4 23 0 36 5 12 6 24 3 27 -8 9 -9
117 -1 117 4 0 3 13 -2 30 -5 16 -5 32 -1 35 4 2 5 25 1 50 -4 25 -3 45 1 45
4 0 4 13 -1 29 -4 16 -6 32 -3 35 8 7 7 105 -1 113 -3 3 -1 13 4 22 5 10 5 23
0 31 -4 7 -5 23 0 35 5 12 5 28 0 35 -5 7 -4 23 0 36 5 12 6 24 3 27 -8 9 -9
117 -1 117 4 0 3 13 -2 29 -4 16 -6 32 -2 35 4 5 5 31 1 111 0 6 1 36 2 67 2
32 0 60 -3 64 -4 3 -3 17 2 30 6 14 6 26 -1 29 -5 4 -7 10 -5 14 4 6 7 71 5
111 0 8 1 41 2 72 2 32 0 60 -3 64 -4 3 -3 17 2 30 5 13 6 25 2 28 -5 3 -5 30
-2 61 3 31 3 58 -2 61 -4 3 -3 16 2 29 5 14 5 27 0 30 -5 3 -5 18 0 35 5 16 5
32 0 35 -5 3 -5 18 0 34 4 16 6 32 3 34 -7 8 -9 117 -1 117 4 0 3 13 -2 29 -4
16 -6 32 -3 35 4 3 5 29 4 58 -1 29 -2 58 -2 63 -3 111 83 223 186 242 11 3
815 5 1786 6 1380 2 1776 -1 1810 -10 60 -17 112 -63 143 -125 l26 -52 0
-1966 c0 -1776 2 -1972 16 -2020 25 -86 91 -168 169 -212 76 -42 114 -44 700
-42 308 0 576 4 595 8 53 10 113 42 163 86 43 38 94 119 100 160 2 11 6 23 10
26 12 12 8 5468 -3 5522 -38 174 -151 299 -323 358 l-70 24 -3331 -1 c-3125 0
-3335 -2 -3391 -18z"/>
<path d="M3140 4130 c-125 -23 -245 -137 -277 -264 -11 -45 -9 -1160 2 -1211
32 -138 149 -250 281 -270 56 -9 1134 -9 1180 -1 135 25 253 141 279 275 7 37
10 248 9 626 -2 549 -2 572 -22 623 -23 58 -76 129 -121 161 -15 11 -52 30
-82 43 -54 22 -55 22 -634 23 -319 1 -596 -1 -615 -5z"/>
</g>
</svg>
