<svg viewBox="0 0 70 70" fill="none" xmlns="http://www.w3.org/2000/svg">
	<path d="M60.1667 37.0187V47.8712C60.1628 48.548 59.9833 49.2122 59.6458 49.7988C59.3083 50.3854 58.8244 50.8744 58.2413 51.218L48.8403 56.633C48.258 56.9801 47.5928 57.1633 46.9149 57.1633C46.2371 57.1633 45.5718 56.9801 44.9896 56.633L35.5885 51.218C35.0054 50.8744 34.5215 50.3854 34.184 49.7988C33.8466 49.2122 33.6671 48.548 33.6632 47.8712V44.8253L38.4765 42.0313V47.326L46.8999 52.2145L55.3232 47.326V37.5714L46.8999 32.6829L27.1652 44.1146C26.5775 44.4457 25.9144 44.6197 25.2398 44.6197C24.5653 44.6197 23.9022 44.4457 23.3145 44.1146L13.9134 38.677C13.3393 38.3282 12.8647 37.8374 12.5353 37.2518C12.206 36.6663 12.0331 36.0058 12.0332 35.334V24.4814C12.0371 23.8046 12.2166 23.1405 12.5541 22.5538C12.8915 21.9672 13.3755 21.4782 13.9585 21.1346L23.3596 15.7196C23.9431 15.376 24.6078 15.1948 25.2849 15.1948C25.9621 15.1948 26.6268 15.376 27.2103 15.7196L36.6114 21.1346C37.1944 21.4782 37.6784 21.9672 38.0158 22.5538C38.3533 23.1405 38.5328 23.8046 38.5367 24.4814V27.5273L33.6933 30.3025V25.0379L25.2699 20.1494L16.8465 25.0379V34.7812L25.2699 39.6698L45.0046 28.2381C45.5923 27.9069 46.2554 27.733 46.93 27.733C47.6045 27.733 48.2676 27.9069 48.8553 28.2381L58.2564 33.6756C58.8361 34.0208 59.3167 34.51 59.6514 35.0958C59.9862 35.6816 60.1637 36.344 60.1667 37.0187V37.0187Z"
		fill="#7B3FE4" />
</svg>